<?xml version="1.0" standalone="no"?>
<!DOCTYPE svg PUBLIC "-//W3C//DTD SVG 20010904//EN"
 "http://www.w3.org/TR/2001/REC-SVG-20010904/DTD/svg10.dtd">
<svg version="1.0" xmlns="http://www.w3.org/2000/svg"
 width="300.000000pt" height="120.000000pt" viewBox="0 0 300.000000 120.000000"
 preserveAspectRatio="xMidYMid meet">

<g transform="translate(0.000000,120.000000) scale(0.100000,-0.100000)"
fill="#000000" stroke="none">
<path d="M1223 793 c-7 -2 -13 -16 -13 -29 0 -19 5 -24 25 -24 30 0 43 24 25
45 -13 16 -17 17 -37 8z"/>
<path d="M1926 785 c-20 -21 -9 -45 20 -45 29 0 41 24 24 45 -16 19 -25 19
-44 0z"/>
<path d="M370 755 c0 -8 7 -15 15 -15 12 0 15 -18 15 -105 0 -87 -3 -105 -15
-105 -8 0 -15 -7 -15 -16 0 -14 11 -16 83 -12 129 7 179 44 179 134 0 91 -60
134 -184 134 -63 0 -78 -3 -78 -15z m175 -41 c36 -39 36 -124 0 -160 -17 -17
-34 -24 -53 -22 l-27 3 -3 103 -3 102 31 0 c21 0 39 -9 55 -26z"/>
<path d="M1072 725 c-6 -14 -18 -25 -27 -25 -8 0 -15 -7 -15 -15 0 -8 7 -15
15 -15 12 0 15 -14 15 -66 0 -83 11 -104 53 -104 18 0 38 4 46 9 21 13 5 29
-24 23 -25 -4 -25 -4 -25 67 0 70 0 71 26 71 31 0 28 23 -4 28 -12 2 -22 12
-24 24 -4 31 -23 32 -36 3z"/>
<path d="M1782 725 c-6 -14 -18 -25 -27 -25 -8 0 -15 -7 -15 -15 0 -8 7 -15
15 -15 12 0 15 -14 15 -66 0 -83 11 -104 53 -104 18 0 38 4 46 9 21 13 5 29
-24 23 -25 -4 -25 -4 -25 67 0 70 0 71 26 71 31 0 28 23 -4 28 -12 2 -22 12
-24 24 -4 31 -23 32 -36 3z"/>
<path d="M689 671 c-88 -89 34 -228 128 -147 20 18 25 28 17 36 -7 7 -16 5
-29 -10 -31 -34 -76 -20 -90 28 -6 21 -4 22 53 22 66 0 79 11 62 54 -20 54
-95 63 -141 17z m95 -18 c9 -22 3 -25 -40 -21 l-39 3 22 22 c24 24 47 22 57
-4z"/>
<path d="M887 682 c-20 -22 -22 -65 -4 -79 6 -6 29 -16 50 -22 26 -9 37 -18
37 -32 0 -17 -6 -20 -32 -17 -28 3 -33 7 -30 26 3 20 0 23 -20 20 -32 -4 -36
-41 -6 -62 34 -24 85 -20 113 9 41 41 27 75 -40 98 -42 15 -57 40 -30 50 25
10 46 -3 39 -25 -5 -16 -2 -19 17 -16 30 4 37 37 13 55 -26 19 -88 16 -107 -5z"/>
<path d="M1208 693 c-22 -5 -24 -33 -3 -33 22 0 22 -118 0 -126 -8 -4 -15 -12
-15 -20 0 -10 14 -14 50 -14 36 0 50 4 50 14 0 8 -7 16 -15 20 -12 4 -15 24
-15 86 0 85 -1 87 -52 73z"/>
<path d="M1313 684 c-17 -12 -17 -13 0 -19 24 -10 25 -130 1 -139 -29 -11 -3
-26 47 -26 37 0 49 4 49 15 0 8 -7 15 -15 15 -12 0 -15 13 -15 60 0 55 2 62
25 72 39 18 55 -3 55 -73 0 -46 -3 -59 -15 -59 -8 0 -15 -7 -15 -15 0 -11 12
-15 49 -15 51 0 72 12 47 27 -9 5 -15 32 -18 77 -3 50 -9 72 -22 81 -23 17
-150 16 -173 -1z"/>
<path d="M1576 687 c-26 -19 -18 -61 13 -65 21 -3 23 -1 17 22 -7 29 5 40 34
31 22 -7 29 -55 8 -55 -39 0 -90 -23 -100 -45 -24 -53 44 -96 102 -65 13 7 21
7 25 0 10 -16 55 -12 55 5 0 8 -4 15 -10 15 -6 0 -10 28 -10 65 0 52 -4 69
-20 85 -23 23 -86 27 -114 7z m84 -111 c0 -19 -29 -48 -44 -43 -17 6 -20 38
-4 48 21 14 48 10 48 -5z"/>
<path d="M1910 689 c-23 -10 -24 -11 -7 -23 23 -18 25 -131 1 -140 -29 -11 -3
-26 47 -26 35 0 49 4 49 14 0 8 -7 16 -15 20 -12 4 -15 24 -15 86 0 87 -4 91
-60 69z"/>
<path d="M2049 671 c-23 -23 -29 -38 -29 -71 0 -90 99 -133 161 -71 44 44 43
102 -2 144 -41 38 -90 37 -130 -2z m101 -20 c5 -11 10 -34 10 -51 0 -44 -17
-70 -45 -70 -28 0 -45 26 -45 70 0 44 17 70 45 70 14 0 29 -8 35 -19z"/>
<path d="M2248 693 c-22 -5 -23 -22 -3 -29 22 -9 22 -134 -1 -134 -9 0 -14 -6
-12 -12 3 -8 26 -14 56 -16 42 -2 52 0 52 12 0 9 -7 16 -15 16 -12 0 -15 13
-15 60 0 55 2 61 26 72 22 11 28 10 40 -7 19 -26 19 -114 -1 -121 -8 -4 -15
-12 -15 -20 0 -10 14 -14 50 -14 38 0 50 4 50 15 0 8 -4 15 -10 15 -5 0 -10
22 -10 49 0 60 -16 109 -38 115 -20 6 -129 5 -154 -1z"/>
<path d="M2500 680 c-38 -38 -21 -73 53 -104 46 -19 44 -40 -3 -44 -29 -3 -32
-1 -27 18 7 26 -17 38 -38 20 -20 -17 -19 -26 5 -50 27 -27 93 -27 121 1 29
29 22 69 -16 88 -75 38 -79 42 -62 58 21 21 50 9 42 -17 -5 -16 -2 -20 19 -20
20 0 26 5 26 23 0 13 -5 28 -12 35 -20 20 -85 15 -108 -8z"/>
</g>
</svg>
